# AST/ASF file generated using VICON BodyLanguage
# -----------------------------------------------
:version 1.10
:name VICON
:units
  mass 1.0
  length 0.45
  angle deg
:documentation
   .ast/.asf automatically generated from VICON data using
   VICON BodyBuilder and BodyLanguage model FoxedUp or BRILLIANT.MOD
:root
   order TX TY TZ RX RY RZ
   axis XYZ
   position 0 0 0  
   orientation 0 0 0 
:bonedata
  begin
     id 1 
     name lhipjoint
     direction 0.693937 -0.600361 0.397515 
     length 2.37164 
     axis 0 0 0  XYZ
  end
  begin
     id 2 
     name lfemur
     direction 0.34202 -0.939693 0  
     length 6.18497  
     axis 0 0 20  XYZ
    dof rx ry rz
    limits (-160.0 20.0)
           (-70.0 70.0)
           (-60.0 70.0)
  end
  begin
     id 3 
     name ltibia
     direction 0.34202 -0.939693 0   
     length 6.91601   
     axis 0 0 20   XYZ
    dof rx
    limits (-10.0 170.0)
  end
  begin
     id 4 
     name lfoot
     direction 0.0978718 -0.2689 0.958182   
     length 1.81453   
     axis -90 7.62852e-016 20   XYZ
    dof rx rz
    limits (-45.0 90.0)
           (-70.0 20.0)
  end
  begin
     id 5 
     name ltoes
     direction 1.53569e-011 -4.21951e-011 1   
     length 0.912052   
     axis -90 7.62852e-016 20   XYZ
    dof rx
    limits (-90.0 20.0)
  end
  begin
     id 6 
     name rhipjoint
     direction -0.643996 -0.637876 0.422354   
     length 2.23216  
     axis 0 0 0  XYZ 
  end
  begin
     id 7 
     name rfemur
     direction -0.34202 -0.939693 0   
     length 6.15404   
     axis 0 0 -20   XYZ
    dof rx ry rz
    limits (-160.0 20.0)
           (-70.0 70.0)
           (-70.0 60.0)
  end
  begin
     id 8 
     name rtibia
     direction -0.34202 -0.939693 0   
     length 6.86744   
     axis 0 0 -20   XYZ
    dof rx
    limits (-10.0 170.0)
 end
 begin
     id 9 
     name rfoot
     direction -0.118701 -0.326127 0.937844   
     length 1.9243  
     axis -90 -7.62852e-016 -20   XYZ
    dof rx rz
    limits (-45.0 90.0)
           (-20.0 70.0)
  end
  begin
     id 10 
     name rtoes
     direction -1.5356e-011 -4.2181e-011 1   
     length 0.958865   
     axis -90 -7.62852e-016 -20   XYZ
    dof rx
    limits (-90.0 20.0)
  end
  begin
     id 11 
     name lowerback
     direction 0.0310826 0.968686 -0.246334   
     length 2.00021   
     axis 0 0 0   XYZ
    dof rx ry rz
    limits (-20.0 45.0)
           (-30.0 30.0)
           (-30.0 30.0)
  end
  begin
     id 12 
     name upperback
     direction -0.0152834 0.999474 -0.0286152   
     length 2.03728   
     axis 0 0 0   XYZ
    dof rx ry rz
    limits (-20.0 45.0)
           (-30.0 30.0)
           (-30.0 30.0)
  end
  begin
     id 13 
     name thorax
     direction -0.0323701 0.996236 0.0804149   
     length 2.16   
     axis 0 0 0   XYZ
    dof rx ry rz
    limits (-20.0 45.0)
           (-30.0 30.0)
           (-30.0 30.0)
  end
  begin
     id 14 
     name lowerneck
     direction 0.0307935 0.982251 0.185027   
     length 1.43558   
     axis 0 0 0   XYZ
    dof rx ry rz
    limits (-20.0 45.0)
           (-30.0 30.0)
           (-30.0 30.0)
  end
  begin
     id 15 
     name upperneck
     direction -0.0927153 0.994775 0.0427454   
     length 1.44603   
     axis 0 0 0   XYZ
    dof rx ry rz
    limits (-20.0 45.0)
           (-30.0 30.0)
           (-30.0 30.0)
  end
  begin
     id 16
     name head
     direction -0.0341265 0.999406 -0.00472033  
     length 1.45931  
     axis 0 0 0   XYZ
    dof rx ry rz
    limits (-20.0 45.0)
           (-30.0 30.0)
           (-30.0 30.0)
  end
  begin
     id 17 
     name lclavicle
     direction 0.820755 0.555306 -0.134151  
     length 2.66075  
     axis 0 0 0   XYZ
    dof ry rz
    limits (-20.0 10.0)
           (0.0 20.0)
  end
  begin
     id 18 
     name lhumerus
     direction 1 -4.48971e-011 5.24853e-027   
     length 5.0546   
     axis -180 -30 -90   XYZ
    dof rx ry rz
    limits (-60.0 90.0)
           (-90.0 90.0)
           (-90.0 90.0)
  end
  begin
     id 19
     name lradius
     direction 1 -4.48971e-011 2.76575e-028   
     length 3.39013   
     axis -180 -30 -90   XYZ
    dof rx
    limits (-10.0 170.0)
  end
  begin
     id 20
     name lwrist
     direction 1 -4.48939e-011 -2.27826e-027   
     length 1.69507   
     axis 2.17013e-015 90 90   XYZ
    dof ry
    limits (-180.0 0.0)
 end
  begin
     id 21 
     name lhand
     direction 1 -4.49009e-011 -4.55652e-027   
     length 0.572425   
     axis 2.90745e-015 90 90   XYZ
    dof rx rz
    limits (-90.0 90.0)
           (-45.0 45.0)
  end
  begin
     id 22 
     name lfingers
     direction 1 -4.48955e-011 -9.11303e-027   
     length 0.461504   
     axis 5.81489e-015 90 90   XYZ
    dof rx
    limits (0.0 90.0)
  end
  begin
     id 23
     name lthumb
     direction 0.707107 -6.34929e-011 0.707107   
     length 0.66263   
     axis -90 45 2.85299e-015   XYZ
    dof rx rz
    limits (-45.0 45.0)
           (-45.0 45.0)
  end
  begin
     id 24 
     name rclavicle
     direction -0.754477 0.632921 -0.173712   
     length 2.73081  
     axis 0 0 0   XYZ 
    dof ry rz
    limits (-10.0 20.0)
           (-20.0 0.0)
  end
  begin
     id 25 
     name rhumerus
     direction -1 -4.48969e-011 5.1496e-027  
     length 5.0701   
     axis -180 30 90   XYZ
    dof rx ry rz
    limits (-90.0 60.0)
           (-90.0 90.0)
           (-90.0 90.0)
  end
  begin
     id 26 
     name rradius
     direction -1 -4.48967e-011 -7.15624e-028   
     length 3.14957   
     axis -180 30 90   XYZ
    dof rx
    limits (-10.0 170.0)
  end
  begin
     id 27 
     name rwrist
     direction -1 -4.48938e-011 -2.27826e-027   
     length 1.57479   
     axis 2.17013e-015 -90 -90   XYZ
    dof ry
    limits (-180.0 0.0)
  end
  begin
     id 28
     name rhand
     direction -1 -4.49008e-011 -4.55652e-027   
     length 0.718191   
     axis 2.90745e-015 -90 -90   XYZ
    dof rx rz
    limits (-90.0 90.0)
           (-45.0 45.0)
  end
  begin
     id 29
     name rfingers
     direction -1 -4.48953e-011 -9.11303e-027   
     length 0.579024   
     axis 5.81489e-015 -90 -90   XYZ
    dof rx
    limits (0.0 90.0)
  end
  begin
     id 30
     name rthumb
     direction -0.707107 -6.34937e-011 0.707107   
     length 0.831366   
     axis -90 -45 -2.85299e-015   XYZ
    dof rx rz
    limits (-45.0 45.0)
           (-45.0 45.0)
  end
:hierarchy
  begin
    root lhipjoint rhipjoint lowerback
    lhipjoint lfemur
    lfemur ltibia
    ltibia lfoot
    lfoot ltoes
    rhipjoint rfemur
    rfemur rtibia
    rtibia rfoot
    rfoot rtoes
    lowerback upperback
    upperback thorax
    thorax lowerneck lclavicle rclavicle
    lowerneck upperneck
    upperneck head
    lclavicle lhumerus
    lhumerus lradius
    lradius lwrist
    lwrist lhand lthumb
    lhand lfingers
    rclavicle rhumerus
    rhumerus rradius
    rradius rwrist
    rwrist rhand rthumb
    rhand rfingers
  end

#!OML:ASF H:\Male1\Project 1\Capture day 1\Session 1\Male1.ASF
:FULLY-SPECIFIED
:DEGREES
1
root -24.4137 15.1145 3.06824 176.011 2.43365 -177.984
lowerback 5.35317 1.06772 -0.655452
upperback 4.16623 1.69173 -0.853658
thorax 1.29253 0.966537 -0.575558
lowerneck -5.66602 3.76462 6.5167
upperneck 3.88199 4.73693 -4.15553
head 2.53293 2.34308 -2.30568
rclavicle 2.32578e-014 3.18055e-015
rhumerus -32.0793 -12.6194 -83.8463
rradius 33.7012
rwrist -16.6252
rhand -15.2582 0.601181
rfingers 7.12502
rthumb 10.9157 -29.0951
lclavicle 2.32578e-014 3.18055e-015
lhumerus -24.2528 8.6995 83.1865
lradius 34.7291
lwrist 1.30718
lhand -24.5926 12.735
lfingers 7.12502
lthumb 1.90501 42.7063
rfemur -2.98452 15.4468 26.1613
rtibia 26.721
rfoot -27.325 -28.6444
rtoes -19.2663
lfemur -2.05236 -19.4109 -22.7237
ltibia 26.8785
lfoot -24.4935 26.1066
ltoes -1.22537
2
root -24.4191 15.1148 3.0681 176.053 2.32785 -177.97
lowerback 5.26353 1.07358 -0.599548
upperback 4.14214 1.69829 -0.856291
thorax 1.31906 0.969211 -0.607896
lowerneck -5.80059 3.70694 6.48947
upperneck 4.07754 4.6489 -4.01955
head 2.61255 2.30275 -2.25759
rclavicle 3.29983e-014 -7.95139e-016
rhumerus -32.4177 -12.1227 -84.0684
rradius 34.3091
rwrist -16.9271
rhand -15.3633 0.676303
rfingers 7.12502
rthumb 10.8143 -29.0253
lclavicle 3.29983e-014 -7.95139e-016
lhumerus -24.2683 6.58899 84.0237
lradius 35.3786
lwrist 0.223654
lhand -23.8241 11.4015
lfingers 7.12502
lthumb 2.64721 41.3648
rfemur -3.0514 15.325 26.1176
rtibia 26.7377
rfoot -27.2202 -28.6934
rtoes -19.6229
lfemur -2.12582 -19.3541 -22.7027
ltibia 26.8431
lfoot -24.1701 26.1934
ltoes -2.13809
3
root -24.4237 15.1155 3.06763 176.062 2.19006 -178.025
lowerback 5.17799 1.05983 -0.576258
upperback 4.14463 1.68245 -0.920846
thorax 1.37171 0.962637 -0.684267
lowerneck -5.78617 3.67038 6.55311
upperneck 4.08244 4.58949 -3.91642
head 2.60648 2.27742 -2.23753
rclavicle -5.46658e-015 -1.27222e-014
rhumerus -32.7254 -11.7544 -84.3587
rradius 34.8555
rwrist -17.3052
rhand -15.5553 1.02196
rfingers 7.12502
rthumb 10.6291 -28.6892
lclavicle -5.46658e-015 -1.27222e-014
lhumerus -24.1272 4.90859 84.6514
lradius 35.5833
lwrist -1.10796
lhand -22.7323 9.83182
lfingers 7.12502
lthumb 3.70163 39.7794
rfemur -3.08137 15.2103 26.0214
rtibia 26.7868
rfoot -27.1886 -28.7629
rtoes -19.9016
lfemur -2.1501 -19.3308 -22.7639
ltibia 26.7954
lfoot -24.0297 26.1474
ltoes -2.30068
4
root -24.4256 15.1144 3.06697 176.018 2.02662 -178.154
lowerback 5.10161 1.02079 -0.696862
upperback 4.18928 1.63302 -0.975984
thorax 1.45851 0.937972 -0.668788
lowerneck -5.81636 3.66289 6.58257
upperneck 4.07699 4.56906 -3.81792
head 2.60651 2.27023 -2.21041
rclavicle 5.46658e-015 6.36111e-015
rhumerus -32.9407 -11.5304 -84.6157
rradius 35.3433
rwrist -17.5138
rhand -15.7237 1.13721
rfingers 7.12502
rthumb 10.4667 -28.5822
lclavicle 5.46658e-015 6.36111e-015
lhumerus -23.8428 3.44573 85.2518
lradius 35.4927
lwrist -1.78874
lhand -21.5732 8.70037
lfingers 7.12502
lthumb 4.82093 38.6255
rfemur -3.0063 15.2752 25.9035
rtibia 26.788
rfoot -27.4076 -28.8244
rtoes -19.3704
lfemur -2.13197 -19.3082 -22.9092
ltibia 26.7946
lfoot -24.0312 26.0077
ltoes -2.32095
5
root -24.4268 15.112 3.06614 175.975 1.83161 -178.158
lowerback 5.03398 0.965404 -0.753547
upperback 4.22651 1.56055 -0.948329
thorax 1.53189 0.900802 -0.603803
lowerneck -5.83691 3.6477 6.53972
upperneck 4.09649 4.54945 -3.78773
head 2.61317 2.2606 -2.19312
rclavicle -1.04362e-014 0
rhumerus -33.1387 -11.4968 -84.7178
rradius 35.7263
rwrist -17.3484
rhand -15.5181 0.988173
rfingers 7.12502
rthumb 10.665 -28.7212
lclavicle -1.04362e-014 0
lhumerus -23.4284 2.34761 85.8448
lradius 35.0632
lwrist -2.14728
lhand -20.3635 8.15395
lfingers 7.12502
lthumb 5.98891 38.0493
rfemur -2.89261 15.4171 25.9474
rtibia 26.7545
rfoot -27.7203 -28.9491
rtoes -18.6408
lfemur -2.12155 -19.3233 -22.9201
ltibia 26.8232
lfoot -24.1253 25.8013
ltoes -1.97202
6
root -24.4299 15.1121 3.06426 175.985 1.6465 -178.008
lowerback 4.91767 0.899261 -0.646136
upperback 4.23103 1.47228 -0.86012
thorax 1.60074 0.855853 -0.56758
lowerneck -5.7611 3.64805 6.44299
upperneck 4.10424 4.56004 -3.74241
head 2.59719 2.26627 -2.16056
rclavicle -4.67144e-015 7.95139e-015
rhumerus -33.3483 -11.5132 -84.719
rradius 35.958
rwrist -17.0222
rhand -15.1923 0.955001
rfingers 7.12502
rthumb 10.9793 -28.7379
lclavicle -4.67144e-015 7.95139e-015
lhumerus -22.9479 1.86289 86.3419
lradius 34.333
lwrist -2.75622
lhand -19.1879 8.09307
lfingers 7.12502
lthumb 7.12377 37.9532
rfemur -2.84199 15.3158 26.0944
rtibia 26.6934
rfoot -27.8109 -28.9983
rtoes -18.5057
lfemur -2.16816 -19.3872 -22.763
ltibia 26.8708
lfoot -24.1199 25.6496
ltoes -1.66377
7
root -24.4328 15.1147 3.0621 176.017 1.53268 -177.882
lowerback 4.76326 0.828383 -0.61084
upperback 4.22505 1.37295 -0.749352
thorax 1.67782 0.802427 -0.46718
lowerneck -5.90821 3.7089 6.06577
upperneck 4.37198 4.63985 -3.3043
head 2.69005 2.31292 -1.93977
rclavicle -8.44835e-015 2.14687e-014
rhumerus -33.466 -11.3037 -84.7289
rradius 35.9768
rwrist -17.0504
rhand -15.3915 1.08138
rfingers 7.12502
rthumb 10.7872 -28.6216
lclavicle -8.44835e-015 2.14687e-014
lhumerus -22.5174 1.81122 86.7402
lradius 33.5649
lwrist -3.5099
lhand -17.9446 8.25123
lfingers 7.12502
lthumb 8.32381 38.0672
rfemur -2.84374 15.0905 26.1791
rtibia 26.609
rfoot -27.7475 -28.9473
rtoes -18.6517
lfemur -2.23917 -19.4668 -22.6257
ltibia 26.937
lfoot -24.1247 25.593
ltoes -1.77569
8
root -24.4342 15.1171 3.06121 176.038 1.44703 -177.89
lowerback 4.66118 0.783035 -0.70919
upperback 4.2081 1.30533 -0.702459
thorax 1.71378 0.763497 -0.360078
lowerneck -6.56478 3.75754 5.37978
upperneck 5.1943 4.6751 -2.42996
head 3.03951 2.34602 -1.51444
rclavicle 4.96962e-015 -1.51076e-014
rhumerus -33.515 -11.1726 -84.7483
rradius 35.796
rwrist -17.3321
rhand -15.6244 1.19845
rfingers 7.12502
rthumb 10.5625 -28.5161
lclavicle 4.96962e-015 -1.51076e-014
lhumerus -22.1211 1.88435 87.0403
lradius 32.7654
lwrist -4.24364
lhand -16.6537 8.60082
lfingers 7.12502
lthumb 9.56948 38.3635
rfemur -2.83598 15.0739 26.1603
rtibia 26.5273
rfoot -27.7893 -28.9887
rtoes -18.3744
lfemur -2.30773 -19.5108 -22.6242
ltibia 27.0038
lfoot -24.2924 25.5175
ltoes -1.65874
9
root -24.4358 15.1172 3.06114 175.995 1.36239 -177.9
lowerback 4.68828 0.776301 -0.711846
upperback 4.18498 1.29449 -0.715876
thorax 1.67506 0.757753 -0.372868
lowerneck -6.67281 3.73815 5.29714
upperneck 5.37469 4.64389 -2.32443
head 3.114 2.33286 -1.46443
rclavicle -1.17283e-014 -6.36111e-015
rhumerus -33.5046 -11.2857 -84.7439
rradius 35.394
rwrist -17.4473
rhand -15.5534 1.29558
rfingers 7.12502
rthumb 10.631 -28.4155
lclavicle -1.17283e-014 -6.36111e-015
lhumerus -21.7084 1.86867 87.297
lradius 31.8193
lwrist -4.68346
lhand -15.8186 9.0051
lfingers 7.12502
lthumb 10.3751 38.7291
rfemur -2.76254 15.1048 26.1664
rtibia 26.4865
rfoot -27.8063 -29.0736
rtoes -18.215
lfemur -2.29775 -19.5312 -22.6459
ltibia 27.0411
lfoot -24.4271 25.3922
ltoes -1.24758
10
root -24.4382 15.1147 3.06197 175.909 1.32836 -177.839
lowerback 4.79331 0.785874 -0.606359
upperback 4.16434 1.30916 -0.718209
thorax 1.59742 0.767817 -0.437145
lowerneck -6.14962 3.65739 5.96741
upperneck 4.85508 4.56053 -3.17043
head 2.88692 2.27715 -1.87809
rclavicle -3.42904e-015 1.43125e-014
rhumerus -33.4246 -11.5169 -84.666
rradius 34.8008
rwrist -17.3036
rhand -15.6045 1.35591
rfingers 7.12502
rthumb 10.5817 -28.3577
lclavicle -3.42904e-015 1.43125e-014
lhumerus -21.3292 1.58078 87.5768
lradius 30.7818
lwrist -4.83231
lhand -15.5392 9.20645
lfingers 7.12502
lthumb 10.6447 38.9168
rfemur -2.66877 15.0745 26.2463
rtibia 26.4914
rfoot -27.8646 -29.0536
rtoes -18.0495
lfemur -2.2189 -19.5196 -22.617
ltibia 27.0428
lfoot -24.1551 25.4712
ltoes -1.98722
11
root -24.4411 15.1132 3.06223 175.906 1.34234 -177.832
lowerback 4.77403 0.808798 -0.564343
upperback 4.14416 1.33951 -0.749834
thorax 1.58908 0.783637 -0.493992
lowerneck -5.95828 3.60367 6.26813
upperneck 4.67551 4.48984 -3.43802
head 2.80628 2.23961 -2.02798
rclavicle -6.85807e-015 1.59028e-015
rhumerus -33.3334 -11.8666 -84.5672
rradius 34.1848
rwrist -16.9446
rhand -15.7224 1.22589
rfingers 7.12502
rthumb 10.468 -28.4935
lclavicle -6.85807e-015 1.59028e-015
lhumerus -21.006 1.155 87.7872
lradius 29.7428
lwrist -5.24234
lhand -15.7254 9.4247
lfingers 7.12502
lthumb 10.465 39.1442
rfemur -2.68735 15.0024 26.2247
rtibia 26.5118
rfoot -27.9542 -28.9152
rtoes -17.7275
lfemur -2.22546 -19.4401 -22.6187
ltibia 27.0383
lfoot -23.7753 25.6435
ltoes -3.25121
12
root -24.4445 15.1142 3.06088 175.951 1.36394 -177.878
lowerback 4.65939 0.829789 -0.596247
upperback 4.13834 1.36626 -0.79516
thorax 1.64753 0.795971 -0.5212
lowerneck -6.00568 3.5825 6.61696
upperneck 4.69575 4.4461 -3.70506
head 2.84157 2.21602 -2.18326
rclavicle -1.42131e-014 4.77083e-015
rhumerus -33.1884 -12.0945 -84.5214
rradius 33.5851
rwrist -16.5621
rhand -15.7456 0.791594
rfingers 7.12502
rthumb 10.4456 -28.9289
lclavicle -1.42131e-014 4.77083e-015
lhumerus -20.7508 0.919961 87.9003
lradius 28.8016
lwrist -6.13815
lhand -16.0227 9.62974
lfingers 7.12502
lthumb 10.1782 39.3635
rfemur -2.76773 14.8522 26.1187
rtibia 26.5422
rfoot -27.7645 -28.85
rtoes -18.2702
lfemur -2.27425 -19.3782 -22.6602
ltibia 27.0252
lfoot -23.6259 25.6851
ltoes -3.76469
13
root -24.4466 15.1118 3.05972 175.961 1.43996 -177.902
lowerback 4.59461 0.845092 -0.62859
upperback 4.1474 1.38662 -0.811057
thorax 1.69282 0.80548 -0.518544
lowerneck -6.11963 3.61074 6.89074
upperneck 4.76005 4.47432 -4.01948
head 2.90795 2.22504 -2.33765
rclavicle 5.96354e-016 -3.18055e-015
rhumerus -32.9933 -12.1553 -84.4807
rradius 32.9834
rwrist -16.3699
rhand -15.7425 0.522382
rfingers 7.12502
rthumb 10.4486 -29.198
lclavicle 5.96354e-016 -3.18055e-015
lhumerus -20.6422 0.874242 87.9763
lradius 28.1009
lwrist -7.01708
lhand -16.0771 9.61338
lfingers 7.12502
lthumb 10.1257 39.3497
rfemur -2.81093 14.8096 26.0761
rtibia 26.5927
rfoot -27.6448 -28.8346
rtoes -18.6019
lfemur -2.25225 -19.3345 -22.6995
ltibia 26.9754
lfoot -23.4547 25.789
ltoes -4.28128
14
root -24.4477 15.1085 3.05885 175.971 1.54771 -177.969
lowerback 4.54548 0.863525 -0.705233
upperback 4.15205 1.41002 -0.838225
thorax 1.72418 0.815725 -0.503107
lowerneck -6.16148 3.65262 6.98088
upperneck 4.73093 4.529 -4.16279
head 2.91793 2.24888 -2.39976
rclavicle 2.5842e-015 1.43125e-014
rhumerus -32.8842 -12.212 -84.4483
rradius 32.4944
rwrist -16.2249
rhand -15.9185 0.506786
rfingers 7.12502
rthumb 10.2788 -29.2221
lclavicle 2.5842e-015 1.43125e-014
lhumerus -20.6735 0.972281 87.996
lradius 27.6245
lwrist -7.68916
lhand -16.2264 9.52341
lfingers 7.12502
lthumb 9.98176 39.2667
rfemur -2.84035 14.9209 26.0089
rtibia 26.6195
rfoot -27.8221 -28.7327
rtoes -17.9772
lfemur -2.21565 -19.3536 -22.7939
ltibia 26.9343
lfoot -23.4853 25.8649
ltoes -4.08972
15
root -24.4511 15.1124 3.05886 176.032 1.63133 -178.021
lowerback 4.49069 0.860523 -0.79377
upperback 4.13516 1.40063 -0.82218
thorax 1.73492 0.807288 -0.435916
lowerneck -6.08474 3.67677 6.98507
upperneck 4.55151 4.5704 -4.26386
head 2.8488 2.26583 -2.43323
rclavicle -1.14301e-014 -2.8625e-014
rhumerus -32.8464 -12.1354 -84.4039
rradius 32.1562
rwrist -16.072
rhand -16.0916 0.206401
rfingers 7.12502
rthumb 10.1118 -29.5306
lclavicle -1.14301e-014 -2.8625e-014
lhumerus -20.7813 1.3826 87.9898
lradius 27.2634
lwrist -8.29622
lhand -16.3581 9.39383
lfingers 7.12502
lthumb 9.85468 39.1432
rfemur -2.90937 14.9668 25.9189
rtibia 26.5899
rfoot -27.8191 -28.6423
rtoes -17.7524
lfemur -2.26645 -19.409 -22.8565
ltibia 26.9454
lfoot -23.5871 25.9325
ltoes -3.75403
